#!OML:ASF Y:\EmotionMaleHayes\Project 1\Capture day 1\Session 1\Male1.ASF
:FULLY-SPECIFIED
:DEGREES
533
root -1.38127 16.3831 18.2303 149.619 73.2937 152.009
lowerback 6.07424 0.195633 -13.576
upperback 2.04036 -0.410963 -2.36861
thorax -1.16585 -0.151163 5.14102
lowerneck -19.988 3.22052 4.16573
upperneck 26.1891 4.18213 -1.98357
head 12.0751 2.16639 -0.740577
rclavicle -2.51214e-014 -4.01545e-014
rhumerus -40.1376 -5.34597 -81.7728
rradius 25.8218
rwrist 11.4083
rhand -8.48625 -31.5544
rfingers 7.12502
rthumb 17.4409 -60.792
lclavicle -2.51214e-014 -4.01545e-014
lhumerus -27.4944 -8.66277 85.2415
lradius 37.1836
lwrist -3.85965
lhand -23.6166 -27.3836
lfingers 7.12502
lthumb 2.84762 2.57716
rfemur -21.5052 -1.62241 2.98047
rtibia 21.7456
rfoot -4.84245 -1.06648
rtoes -0.11574
lfemur 23.8264 -7.40407 -32.7127
ltibia 19.7765
lfoot -17.6321 -3.98056
ltoes -14.0176
534
root -1.21481 16.3897 18.2459 153.013 72.6951 155.724
lowerback 6.4167 0.112384 -13.0199
upperback 2.07895 -0.547004 -2.16373
thorax -1.29925 -0.216262 5.06282
lowerneck -19.8498 3.17641 4.67604
upperneck 26.3298 4.1505 -2.56978
head 12.1289 2.13344 -1.05239
rclavicle -3.55328e-015 1.98785e-015
rhumerus -39.5521 -5.09825 -82.0566
rradius 25.9695
rwrist 11.4668
rhand -8.55024 -31.8387
rfingers 7.12502
rthumb 17.3793 -61.0817
lclavicle -3.55328e-015 1.98785e-015
lhumerus -27.9582 -7.37069 85.0622
lradius 35.7057
lwrist -5.12482
lhand -24.1836 -26.8914
lfingers 7.12502
lthumb 2.30001 3.07596
rfemur -20.7016 -2.31977 3.92248
rtibia 22.3433
rfoot -5.62762 -1.23821
rtoes -2.7096
lfemur 23.775 -7.95005 -31.6412
ltibia 21.3008
lfoot -17.0253 -4.44684
ltoes -12.875
535
root -1.05432 16.398 18.2365 154.606 73.1985 157.711
lowerback 6.62884 0.366836 -12.1516
upperback 2.18593 -0.184941 -2.02147
thorax -1.38046 -0.0395522 4.70735
lowerneck -19.6287 3.29903 4.78091
upperneck 26.1019 4.29449 -2.57358
head 12.0047 2.20869 -1.05084
rclavicle 1.51325e-014 -2.78299e-014
rhumerus -38.7414 -4.98434 -82.2967
rradius 26.0147
rwrist 11.8453
rhand -8.5368 -32.4199
rfingers 7.12502
rthumb 17.3923 -61.6618
lclavicle 1.51325e-014 -2.78299e-014
lhumerus -28.1907 -5.69407 84.7292
lradius 34.0266
lwrist -6.64021
lhand -24.8888 -27.416
lfingers 7.12502
lthumb 1.61896 2.55765
rfemur -20.5287 -2.84765 5.15523
rtibia 23.576
rfoot -5.96435 -0.259164
rtoes -4.29351
lfemur 23.7717 -7.6611 -30.8102
ltibia 22.8492
lfoot -16.1194 -3.95492
ltoes -10.0321
536
root -0.878085 16.4176 18.2386 157.939 73.004 161.596
lowerback 6.96359 0.26948 -11.4145
upperback 2.44069 -0.296067 -1.61064
thorax -1.28661 -0.113957 4.74066
lowerneck -19.4973 3.61405 4.30228
upperneck 25.7409 4.76813 -2.17417
head 11.8335 2.42131 -0.748211
rclavicle 1.92076e-014 4.77083e-014
rhumerus -37.6314 -4.40606 -82.4996
rradius 26.1746
rwrist 11.983
rhand -8.60324 -33.26
rfingers 7.12502
rthumb 17.3283 -62.5075
lclavicle 1.92076e-014 4.77083e-014
lhumerus -28.3277 -3.35666 84.3856
lradius 32.3552
lwrist -8.35345
lhand -25.5118 -27.5404
lfingers 7.12502
lthumb 1.01723 2.43689
rfemur -18.5792 -2.79683 6.37368
rtibia 22.4152
rfoot -5.7972 -0.762304
rtoes -4.18908
lfemur 23.7774 -7.7459 -29.416
ltibia 24.7363
lfoot -14.223 -3.14162
ltoes -6.68178
537
root -0.711751 16.4384 18.2404 161.014 72.8719 165.085
lowerback 7.29417 0.363205 -10.534
upperback 2.4333 -0.163709 -1.34638
thorax -1.50986 -0.0408327 4.51913
lowerneck -19.1718 3.82123 4.6905
upperneck 25.7173 5.05224 -2.46053
head 11.7913 2.55803 -0.8781
rclavicle -2.81529e-014 7.55382e-015
rhumerus -36.9984 -4.5194 -82.5429
rradius 26.2114
rwrist 12.2079
rhand -9.05372 -33.378
rfingers 7.12502
rthumb 16.8947 -62.6632
lclavicle -2.81529e-014 7.55382e-015
lhumerus -28.9634 -1.86036 84.0802
lradius 30.8156
lwrist -9.75115
lhand -25.8235 -26.2671
lfingers 7.12502
lthumb 0.716245 3.71142
rfemur -18.031 -3.20333 7.66253
rtibia 23.4547
rfoot -6.61712 -0.79326
rtoes -6.66864
lfemur 23.4377 -7.57484 -27.9371
ltibia 26.752
lfoot -12.6665 -3.15855
ltoes -4.20181
538
root -0.56617 16.4567 18.2356 164 72.8241 168.486
lowerback 7.76504 0.523069 -9.43046
upperback 2.4837 0.0723261 -1.133
thorax -1.76273 0.0840633 4.10699
lowerneck -19.4209 3.91378 5.2178
upperneck 26.0382 5.16811 -2.93949
head 12.0021 2.60144 -1.11972
rclavicle 4.53229e-014 1.11319e-014
rhumerus -36.0878 -4.7078 -82.6362
rradius 25.9965
rwrist 12.4333
rhand -9.83782 -32.7291
rfingers 7.12502
rthumb 16.1398 -62.0771
lclavicle 4.53229e-014 1.11319e-014
lhumerus -29.4634 -0.624999 83.7359
lradius 29.4298
lwrist -11.0458
lhand -25.9104 -24.6511
lfingers 7.12502
lthumb 0.632264 5.32767
rfemur -16.8063 -3.11651 8.91364
rtibia 22.9855
rfoot -6.94099 -1.01638
rtoes -9.11543
lfemur 22.9365 -7.23901 -26.4551
ltibia 28.7943
lfoot -10.9585 -2.84153
ltoes -0.8883
